<svg xmlns="http://www.w3.org/2000/svg" xmlns:xlink="http://www.w3.org/1999/xlink" version="1.1" width="1000" height="1000" viewBox="0 0 1000 1000" xml:space="preserve">
<desc>Created with Fabric.js 3.5.0</desc>
<defs>
</defs>
<rect x="0" y="0" width="100%" height="100%" fill="rgba(255,255,255,0.02)"/>
<g transform="matrix(2.2659 0 0 2.2659 579.4965 499.6309)" id="437887">
<g style="" vector-effect="non-scaling-stroke">
		<g transform="matrix(1 0 0 1 -37.106 -203.8281)" id="Vector" clip-path="url(#CLIPPATH_10)">
<clipPath id="CLIPPATH_10">
	<rect transform="matrix(1 0 0 1 37.106 203.8281)" id="clip0" x="-182.5" y="-220.5" rx="0" ry="0" width="365" height="441"/>
</clipPath>
<path style="stroke: rgb(115,46,84); stroke-width: 2; stroke-dasharray: none; stroke-linecap: round; stroke-dashoffset: 0; stroke-linejoin: miter; stroke-miterlimit: 10; is-custom-font: none; font-file-url: none; fill: none; fill-rule: nonzero; opacity: 1;" transform=" translate(-145.394, -16.6719)" d="M 145.394 27.2229 V 6.12091" stroke-linecap="round"/>
</g>
		<g transform="matrix(1 0 0 1 -115.3551 -184.0699)" id="Vector_2" clip-path="url(#CLIPPATH_11)">
<clipPath id="CLIPPATH_11">
	<rect transform="matrix(1 0 0 1 115.3551 184.0699)" id="clip0" x="-182.5" y="-220.5" rx="0" ry="0" width="365" height="441"/>
</clipPath>
<path style="stroke: rgb(115,46,84); stroke-width: 2; stroke-dasharray: none; stroke-linecap: round; stroke-dashoffset: 0; stroke-linejoin: miter; stroke-miterlimit: 10; is-custom-font: none; font-file-url: none; fill: none; fill-rule: nonzero; opacity: 1;" transform=" translate(-67.1449, -36.4301)" d="M 61.0464 28.8151 L 73.2434 44.0452" stroke-linecap="round"/>
</g>
		<g transform="matrix(1 0 0 1 41.7185 -184.0699)" id="Vector_3" clip-path="url(#CLIPPATH_12)">
<clipPath id="CLIPPATH_12">
	<rect transform="matrix(1 0 0 1 -41.7185 184.0699)" id="clip0" x="-182.5" y="-220.5" rx="0" ry="0" width="365" height="441"/>
</clipPath>
<path style="stroke: rgb(115,46,84); stroke-width: 2; stroke-dasharray: none; stroke-linecap: round; stroke-dashoffset: 0; stroke-linejoin: miter; stroke-miterlimit: 10; is-custom-font: none; font-file-url: none; fill: none; fill-rule: nonzero; opacity: 1;" transform=" translate(-224.2185, -36.4301)" d="M 230.287 28.8151 L 218.15 44.0452" stroke-linecap="round"/>
</g>
		<g transform="matrix(1 0 0 1 75.4558 0.0017)" id="Vector_4" clip-path="url(#CLIPPATH_13)">
<clipPath id="CLIPPATH_13">
	<rect transform="matrix(1 0 0 1 -75.4558 -0.0017)" id="clip0" x="-182.5" y="-220.5" rx="0" ry="0" width="365" height="441"/>
</clipPath>
<path style="stroke: none; stroke-width: 1; stroke-dasharray: none; stroke-linecap: butt; stroke-dashoffset: 0; stroke-linejoin: miter; stroke-miterlimit: 4; is-custom-font: none; font-file-url: none; fill: rgb(56,155,243); fill-rule: nonzero; opacity: 0.8;" transform=" translate(-257.9558, -220.5017)" d="M 327.196 194.445 L 205.408 274.265 C 201.852 276.237 197.686 276.776 193.752 275.772 C 189.817 274.767 186.408 272.295 184.212 268.855 C 182.016 265.414 181.197 261.262 181.922 257.237 C 182.646 253.211 184.859 249.613 188.114 247.169 L 309.477 167.349 C 311.242 166.192 313.216 165.397 315.286 165.009 C 317.356 164.622 319.481 164.649 321.541 165.089 C 323.6 165.529 325.554 166.374 327.289 167.575 C 329.025 168.776 330.509 170.31 331.656 172.089 C 332.804 173.868 333.592 175.858 333.977 177.944 C 334.362 180.03 334.335 182.173 333.898 184.249 C 333.462 186.324 332.623 188.293 331.432 190.043 C 330.24 191.792 328.719 193.288 326.953 194.445 H 327.196 Z" stroke-linecap="round"/>
</g>
		<g transform="matrix(1 0 0 1 -67.5075 93.8908)" id="Vector_5" clip-path="url(#CLIPPATH_14)">
<clipPath id="CLIPPATH_14">
	<rect transform="matrix(1 0 0 1 67.5076 -93.8908)" id="clip0" x="-182.5" y="-220.5" rx="0" ry="0" width="365" height="441"/>
</clipPath>
<path style="stroke: none; stroke-width: 1; stroke-dasharray: none; stroke-linecap: butt; stroke-dashoffset: 0; stroke-linejoin: miter; stroke-miterlimit: 4; is-custom-font: none; font-file-url: none; fill: rgb(255,157,35); fill-rule: nonzero; opacity: 0.8;" transform=" translate(-114.9924, -314.3908)" d="M 164.448 301.118 L 83.0131 354.76 C 81.248 355.916 79.2742 356.711 77.2043 357.099 C 75.1344 357.487 73.009 357.46 70.9495 357.019 C 66.7901 356.13 63.1514 353.612 60.8339 350.019 C 58.5164 346.426 57.71 342.052 58.5919 337.86 C 59.4739 333.667 61.972 329.999 65.5368 327.663 L 146.972 274.022 C 150.536 271.686 154.876 270.873 159.035 271.762 C 163.194 272.651 166.833 275.169 169.151 278.762 C 171.468 282.355 172.275 286.729 171.393 290.922 C 170.511 295.114 168.013 298.782 164.448 301.118 Z" stroke-linecap="round"/>
</g>
		<g transform="matrix(1 0 0 1 17.7129 -18.4743)" id="Vector_6" clip-path="url(#CLIPPATH_15)">
<clipPath id="CLIPPATH_15">
	<rect transform="matrix(1 0 0 1 -17.7128 18.4742)" id="clip0" x="-182.5" y="-220.5" rx="0" ry="0" width="365" height="441"/>
</clipPath>
<path style="stroke: none; stroke-width: 1; stroke-dasharray: none; stroke-linecap: butt; stroke-dashoffset: 0; stroke-linejoin: miter; stroke-miterlimit: 4; is-custom-font: none; font-file-url: none; fill: rgb(170,125,255); fill-rule: nonzero; opacity: 1;" transform=" translate(-200.2128, -202.0258)" d="M 270.034 175.727 L 148.246 255.241 C 146.481 256.398 144.507 257.193 142.437 257.581 C 140.367 257.968 138.242 257.941 136.182 257.501 C 134.123 257.061 132.17 256.216 130.434 255.015 C 128.698 253.814 127.214 252.28 126.067 250.501 C 124.919 248.722 124.131 246.732 123.746 244.646 C 123.361 242.559 123.388 240.417 123.825 238.341 C 124.261 236.265 125.1 234.296 126.291 232.547 C 127.483 230.798 129.005 229.302 130.77 228.145 L 252.497 148.569 C 256.068 146.374 260.348 145.668 264.427 146.601 C 268.506 147.534 272.064 150.032 274.346 153.566 C 276.628 157.1 277.454 161.39 276.649 165.528 C 275.844 169.665 273.471 173.324 270.034 175.727 V 175.727 Z" stroke-linecap="round"/>
</g>
		<g transform="matrix(1 0 0 1 -124.5419 74.8673)" id="Vector_7" clip-path="url(#CLIPPATH_16)">
<clipPath id="CLIPPATH_16">
	<rect transform="matrix(1 0 0 1 124.542 -74.8673)" id="clip0" x="-182.5" y="-220.5" rx="0" ry="0" width="365" height="441"/>
</clipPath>
<path style="stroke: none; stroke-width: 1; stroke-dasharray: none; stroke-linecap: butt; stroke-dashoffset: 0; stroke-linejoin: miter; stroke-miterlimit: 4; is-custom-font: none; font-file-url: none; fill: rgb(56,155,243); fill-rule: nonzero; opacity: 1;" transform=" translate(-57.958, -295.3673)" d="M 107.225 282.338 L 25.8507 335.735 C 22.2794 337.93 18.0001 338.636 13.9208 337.703 C 9.84149 336.77 6.28337 334.272 4.00149 330.738 C 1.71961 327.204 0.893573 322.914 1.69868 318.776 C 2.50378 314.639 4.87666 310.98 8.31375 308.577 L 89.7485 255.241 C 91.5136 254.085 93.4874 253.29 95.5573 252.902 C 97.6272 252.514 99.7525 252.541 101.812 252.981 C 103.872 253.422 105.825 254.266 107.561 255.468 C 109.296 256.669 110.78 258.203 111.928 259.982 C 113.075 261.761 113.864 263.75 114.248 265.837 C 114.633 267.923 114.606 270.065 114.17 272.141 C 113.733 274.217 112.895 276.186 111.703 277.936 C 110.512 279.685 108.99 281.181 107.225 282.338 Z" stroke-linecap="round"/>
</g>
		<g transform="matrix(1 0 0 1 115.1198 -82.1571)" id="Vector_8" clip-path="url(#CLIPPATH_17)">
<clipPath id="CLIPPATH_17">
	<rect transform="matrix(1 0 0 1 -115.1198 82.1571)" id="clip0" x="-182.5" y="-220.5" rx="0" ry="0" width="365" height="441"/>
</clipPath>
<path style="stroke: none; stroke-width: 1; stroke-dasharray: none; stroke-linecap: butt; stroke-dashoffset: 0; stroke-linejoin: miter; stroke-miterlimit: 4; is-custom-font: none; font-file-url: none; fill: rgb(255,157,35); fill-rule: nonzero; opacity: 1;" transform=" translate(-297.6198, -138.3429)" d="M 306.746 151.638 L 306.017 152.127 C 304.252 153.288 302.278 154.087 300.206 154.478 C 298.135 154.87 296.007 154.846 293.945 154.409 C 291.883 153.971 289.926 153.129 288.187 151.929 C 286.447 150.73 284.959 149.197 283.808 147.418 C 282.656 145.638 281.864 143.648 281.476 141.56 C 281.087 139.472 281.111 137.328 281.544 135.249 C 281.978 133.17 282.814 131.198 284.004 129.445 C 285.194 127.692 286.715 126.192 288.48 125.031 L 289.269 124.542 C 292.834 122.206 297.173 121.393 301.333 122.282 C 305.492 123.171 309.131 125.689 311.448 129.282 C 313.766 132.875 314.572 137.249 313.69 141.442 C 312.808 145.634 310.31 149.302 306.746 151.638 V 151.638 Z" stroke-linecap="round"/>
</g>
		<g transform="matrix(1 0 0 1 69.5269 60.205)" id="Vector_9" clip-path="url(#CLIPPATH_18)">
<clipPath id="CLIPPATH_18">
	<rect transform="matrix(1 0 0 1 -69.5269 -60.205)" id="clip0" x="-182.5" y="-220.5" rx="0" ry="0" width="365" height="441"/>
</clipPath>
<path style="stroke: none; stroke-width: 1; stroke-dasharray: none; stroke-linecap: butt; stroke-dashoffset: 0; stroke-linejoin: miter; stroke-miterlimit: 4; is-custom-font: none; font-file-url: none; fill: rgb(56,155,243); fill-rule: nonzero; opacity: 0.5;" transform=" translate(-252.0269, -280.705)" d="M 321.006 254.756 L 199.218 334.576 C 195.67 336.414 191.569 336.851 187.718 335.803 C 183.867 334.754 180.543 332.296 178.396 328.907 C 176.248 325.519 175.432 321.445 176.107 317.482 C 176.782 313.519 178.899 309.953 182.045 307.48 L 303.408 227.66 C 306.973 225.324 311.312 224.511 315.472 225.4 C 319.631 226.289 323.27 228.807 325.587 232.4 C 327.905 235.993 328.711 240.367 327.829 244.56 C 326.947 248.752 324.449 252.42 320.885 254.756 H 321.006 Z" stroke-linecap="round"/>
</g>
		<g transform="matrix(1 0 0 1 -73.6972 154.0489)" id="Vector_10" clip-path="url(#CLIPPATH_19)">
<clipPath id="CLIPPATH_19">
	<rect transform="matrix(1 0 0 1 73.6972 -154.0489)" id="clip0" x="-182.5" y="-220.5" rx="0" ry="0" width="365" height="441"/>
</clipPath>
<path style="stroke: none; stroke-width: 1; stroke-dasharray: none; stroke-linecap: butt; stroke-dashoffset: 0; stroke-linejoin: miter; stroke-miterlimit: 4; is-custom-font: none; font-file-url: none; fill: rgb(170,125,255); fill-rule: nonzero; opacity: 0.5;" transform=" translate(-108.8028, -374.5489)" d="M 158.258 361.429 L 76.8236 414.765 C 75.0585 415.922 73.0846 416.717 71.0148 417.104 C 68.9449 417.492 66.8195 417.465 64.76 417.025 C 62.7005 416.585 60.7471 415.74 59.0115 414.539 C 57.2759 413.338 55.7919 411.804 54.6444 410.025 C 53.4969 408.246 52.7083 406.256 52.3236 404.17 C 51.9389 402.083 51.9657 399.941 52.4024 397.865 C 53.2843 393.673 55.7825 390.005 59.3473 387.669 L 140.782 334.333 C 144.347 331.997 148.686 331.184 152.846 332.073 C 157.005 332.962 160.644 335.48 162.961 339.073 C 165.279 342.667 166.085 347.04 165.203 351.233 C 164.321 355.426 161.823 359.093 158.258 361.429 V 361.429 Z" stroke-linecap="round"/>
</g>
		<g transform="matrix(1 0 0 1 166.4192 -3.088)" id="Vector_11" clip-path="url(#CLIPPATH_20)">
<clipPath id="CLIPPATH_20">
	<rect transform="matrix(1 0 0 1 -166.4192 3.0879)" id="clip0" x="-182.5" y="-220.5" rx="0" ry="0" width="365" height="441"/>
</clipPath>
<path style="stroke: none; stroke-width: 1; stroke-dasharray: none; stroke-linecap: butt; stroke-dashoffset: 0; stroke-linejoin: miter; stroke-miterlimit: 4; is-custom-font: none; font-file-url: none; fill: rgb(255,157,35); fill-rule: nonzero; opacity: 0.5;" transform=" translate(-348.9192, -217.4121)" d="M 358.021 230.716 L 357.293 231.205 C 355.528 232.361 353.554 233.156 351.484 233.544 C 349.415 233.932 347.289 233.905 345.23 233.465 C 343.17 233.025 341.217 232.18 339.481 230.979 C 337.746 229.778 336.262 228.244 335.114 226.465 C 333.967 224.685 333.178 222.696 332.793 220.609 C 332.409 218.523 332.435 216.381 332.872 214.305 C 333.309 212.229 334.147 210.26 335.338 208.511 C 336.53 206.761 338.052 205.265 339.817 204.109 L 340.545 203.619 C 342.31 202.463 344.284 201.668 346.354 201.28 C 348.424 200.892 350.549 200.919 352.609 201.36 C 354.668 201.8 356.622 202.644 358.357 203.846 C 360.093 205.047 361.577 206.581 362.724 208.36 C 363.872 210.139 364.66 212.128 365.045 214.215 C 365.43 216.301 365.403 218.443 364.966 220.519 C 364.53 222.595 363.692 224.564 362.5 226.314 C 361.308 228.063 359.787 229.559 358.021 230.716 Z" stroke-linecap="round"/>
</g>
		<g transform="matrix(1 0 0 1 -38.5383 -21.2792)" id="Vector_12" clip-path="url(#CLIPPATH_21)">
<clipPath id="CLIPPATH_21">
	<rect transform="matrix(1 0 0 1 38.5384 21.2792)" id="clip0" x="-182.5" y="-220.5" rx="0" ry="0" width="365" height="441"/>
</clipPath>
<path style="stroke: none; stroke-width: 1; stroke-dasharray: none; stroke-linecap: butt; stroke-dashoffset: 0; stroke-linejoin: miter; stroke-miterlimit: 4; is-custom-font: none; font-file-url: none; fill: rgb(255,255,255); fill-rule: nonzero; opacity: 1;" transform=" translate(-143.9616, -199.2208)" d="M 39.9896 230.667 C 47.6355 249.016 59.4077 265.286 69.2381 282.596 C 79.0686 299.906 87.4426 319.295 86.2897 339.051 H 201.585 C 200.675 319.111 208.745 299.906 218.576 282.596 C 228.406 265.286 240.178 248.955 247.885 230.667 C 279.743 154.577 230.591 58.0589 143.998 59.4045 C 57.2839 58.0589 8.25309 154.577 39.9896 230.667 Z" stroke-linecap="round"/>
</g>
		<g transform="matrix(1 0 0 1 19.6303 -22.2124)" id="Vector_13" clip-path="url(#CLIPPATH_22)">
<clipPath id="CLIPPATH_22">
	<rect transform="matrix(1 0 0 1 -19.6303 22.2124)" id="clip0" x="-182.5" y="-220.5" rx="0" ry="0" width="365" height="441"/>
</clipPath>
<path style="stroke: none; stroke-width: 1; stroke-dasharray: none; stroke-linecap: butt; stroke-dashoffset: 0; stroke-linejoin: miter; stroke-miterlimit: 4; is-custom-font: none; font-file-url: none; fill: rgb(206,193,188); fill-rule: nonzero; opacity: 1;" transform=" translate(-202.1303, -198.2876)" d="M 145.272 58.4711 V 338.118 H 202.98 C 202.07 318.178 210.141 298.972 219.971 281.662 C 229.801 264.353 241.634 248.022 249.28 229.733 C 281.017 153.644 231.986 57.1254 145.272 58.4711 Z" stroke-linecap="round"/>
</g>
		<g transform="matrix(1 0 0 1 -37.6799 -19.5156)" id="Vector_14" clip-path="url(#CLIPPATH_23)">
<clipPath id="CLIPPATH_23">
	<rect transform="matrix(1 0 0 1 37.6799 19.5156)" id="clip0" x="-182.5" y="-220.5" rx="0" ry="0" width="365" height="441"/>
</clipPath>
<path style="stroke: rgb(115,46,84); stroke-width: 2; stroke-dasharray: none; stroke-linecap: butt; stroke-dashoffset: 0; stroke-linejoin: miter; stroke-miterlimit: 10; is-custom-font: none; font-file-url: none; fill: none; fill-rule: nonzero; opacity: 1;" transform=" translate(-144.8201, -200.9844)" d="M 40.8394 232.43 C 48.5459 250.779 60.3182 267.049 70.1486 284.359 C 78.8505 298.503 84.5529 314.309 86.8967 330.783 C 87.2261 333.572 88.5674 336.14 90.6624 337.992 C 92.7573 339.844 95.4579 340.849 98.2442 340.814 H 191.512 C 194.298 340.849 196.999 339.844 199.094 337.992 C 201.189 336.14 202.53 333.572 202.859 330.783 C 205.147 314.295 210.854 298.477 219.607 284.359 C 229.438 267.049 241.21 250.779 248.795 232.43 C 280.532 156.341 231.501 59.8221 144.787 61.1678 C 58.1943 59.8221 9.10287 156.341 40.8394 232.43 Z" stroke-linecap="round"/>
</g>
		<g transform="matrix(1 0 0 1 -39.2905 191.3355)" id="Vector_15" clip-path="url(#CLIPPATH_24)">
<linearGradient id="SVGID_9" gradientUnits="userSpaceOnUse" gradientTransform="matrix(1 0 0 1 0 0)" x1="101.946" y1="411.836" x2="184.473" y2="411.836">
<stop offset="4%" style="stop-color:rgb(242,123,64);stop-opacity: 1"/>
<stop offset="100%" style="stop-color:rgb(236,105,125);stop-opacity: 1"/>
</linearGradient>
<clipPath id="CLIPPATH_24">
	<rect transform="matrix(1 0 0 1 39.2905 -191.3355)" id="clip0" x="-182.5" y="-220.5" rx="0" ry="0" width="365" height="441"/>
</clipPath>
<path style="stroke: none; stroke-width: 1; stroke-dasharray: none; stroke-linecap: butt; stroke-dashoffset: 0; stroke-linejoin: miter; stroke-miterlimit: 4; is-custom-font: none; font-file-url: none; fill: url(#SVGID_9); fill-rule: nonzero; opacity: 1;" transform=" translate(-143.2095, -411.8355)" d="M 101.946 390.122 H 184.473 V 391.957 C 184.473 397.419 183.405 402.828 181.332 407.874 C 179.258 412.92 176.219 417.505 172.387 421.367 C 168.555 425.23 164.006 428.293 159 430.383 C 153.994 432.474 148.628 433.549 143.209 433.549 V 433.549 C 132.266 433.549 121.77 429.167 114.032 421.367 C 106.293 413.567 101.946 402.988 101.946 391.957 V 390.122 V 390.122 Z" stroke-linecap="round"/>
</g>
		<g transform="matrix(1 0 0 1 -37.9865 192.6677)" id="Vector_16" clip-path="url(#CLIPPATH_25)">
<clipPath id="CLIPPATH_25">
	<rect transform="matrix(1 0 0 1 37.9865 -192.6677)" id="clip0" x="-182.5" y="-220.5" rx="0" ry="0" width="365" height="441"/>
</clipPath>
<path style="stroke: rgb(115,46,84); stroke-width: 2; stroke-dasharray: none; stroke-linecap: butt; stroke-dashoffset: 0; stroke-linejoin: miter; stroke-miterlimit: 10; is-custom-font: none; font-file-url: none; fill: none; fill-rule: nonzero; opacity: 1;" transform=" translate(-144.5135, -413.1677)" d="M 103.159 391.454 H 185.868 V 393.289 C 185.868 398.751 184.8 404.16 182.727 409.206 C 180.653 414.252 177.614 418.837 173.782 422.699 C 169.95 426.562 165.401 429.625 160.395 431.715 C 155.389 433.806 150.023 434.881 144.604 434.881 C 139.17 434.906 133.785 433.848 128.757 431.768 C 123.73 429.689 119.16 426.629 115.309 422.764 C 111.458 418.9 108.402 414.307 106.317 409.248 C 104.232 404.19 103.159 398.767 103.159 393.289 V 391.454 Z" stroke-linecap="round"/>
</g>
		<g transform="matrix(1 0 0 1 -38.9267 170.781)" id="Vector_17" clip-path="url(#CLIPPATH_26)">
<clipPath id="CLIPPATH_26">
	<rect transform="matrix(1 0 0 1 38.9267 -170.781)" id="clip0" x="-182.5" y="-220.5" rx="0" ry="0" width="365" height="441"/>
</clipPath>
<path style="stroke: rgb(115,46,84); stroke-width: 2; stroke-dasharray: none; stroke-linecap: round; stroke-dashoffset: 0; stroke-linejoin: miter; stroke-miterlimit: 10; is-custom-font: none; font-file-url: none; fill: none; fill-rule: nonzero; opacity: 1;" transform=" translate(-143.5733, -391.281)" d="M 60.5605 391.281 H 226.586" stroke-linecap="round"/>
</g>
		<g transform="matrix(1 0 0 1 -42.8104 146.928)" id="Vector_18" clip-path="url(#CLIPPATH_27)">
<clipPath id="CLIPPATH_27">
	<rect transform="matrix(1 0 0 1 42.8104 -146.928)" id="clip0" x="-182.5" y="-220.5" rx="0" ry="0" width="365" height="441"/>
</clipPath>
<path style="stroke: rgb(115,46,84); stroke-width: 2; stroke-dasharray: none; stroke-linecap: round; stroke-dashoffset: 0; stroke-linejoin: miter; stroke-miterlimit: 10; is-custom-font: none; font-file-url: none; fill: none; fill-rule: nonzero; opacity: 1;" transform=" translate(-139.6896, -367.428)" d="M 90.0522 367.428 H 189.327" stroke-linecap="round"/>
</g>
		<g transform="matrix(1 0 0 1 91.235 -136.4521)" id="Vector_19" clip-path="url(#CLIPPATH_28)">
<clipPath id="CLIPPATH_28">
	<rect transform="matrix(1 0 0 1 -91.235 136.4521)" id="clip0" x="-182.5" y="-220.5" rx="0" ry="0" width="365" height="441"/>
</clipPath>
<path style="stroke: rgb(115,46,84); stroke-width: 2; stroke-dasharray: none; stroke-linecap: round; stroke-dashoffset: 0; stroke-linejoin: miter; stroke-miterlimit: 10; is-custom-font: none; font-file-url: none; fill: none; fill-rule: nonzero; opacity: 1;" transform=" translate(-273.735, -84.0479)" d="M 262.509 90.8984 L 284.961 77.1974" stroke-linecap="round"/>
</g>
		<g transform="matrix(1 0 0 1 -165.2055 -136.4521)" id="Vector_20" clip-path="url(#CLIPPATH_29)">
<clipPath id="CLIPPATH_29">
	<rect transform="matrix(1 0 0 1 165.2055 136.4521)" id="clip0" x="-182.5" y="-220.5" rx="0" ry="0" width="365" height="441"/>
</clipPath>
<path style="stroke: rgb(115,46,84); stroke-width: 2; stroke-dasharray: none; stroke-linecap: round; stroke-dashoffset: 0; stroke-linejoin: miter; stroke-miterlimit: 10; is-custom-font: none; font-file-url: none; fill: none; fill-rule: nonzero; opacity: 1;" transform=" translate(-17.2945, -84.0479)" d="M 28.5206 90.8984 L 6.06836 77.1974" stroke-linecap="round"/>
</g>
		<g transform="matrix(1 0 0 1 -37.228 92.73)" id="Vector_21" clip-path="url(#CLIPPATH_30)">
<clipPath id="CLIPPATH_30">
	<rect transform="matrix(1 0 0 1 37.228 -92.73)" id="clip0" x="-182.5" y="-220.5" rx="0" ry="0" width="365" height="441"/>
</clipPath>
<path style="stroke: rgb(115,46,84); stroke-width: 2; stroke-dasharray: none; stroke-linecap: round; stroke-dashoffset: 0; stroke-linejoin: miter; stroke-miterlimit: 10; is-custom-font: none; font-file-url: none; fill: none; fill-rule: nonzero; opacity: 1;" transform=" translate(-145.272, -313.23)" d="M 145.272 338.124 V 288.336" stroke-linecap="round"/>
</g>
		<g transform="matrix(1 0 0 1 -37.0155 51.5715)" id="Vector_22" clip-path="url(#CLIPPATH_31)">
<clipPath id="CLIPPATH_31">
	<rect transform="matrix(1 0 0 1 37.0155 -51.5715)" id="clip0" x="-182.5" y="-220.5" rx="0" ry="0" width="365" height="441"/>
</clipPath>
<path style="stroke: rgb(115,46,84); stroke-width: 2; stroke-dasharray: none; stroke-linecap: round; stroke-dashoffset: 0; stroke-linejoin: miter; stroke-miterlimit: 10; is-custom-font: none; font-file-url: none; fill: none; fill-rule: nonzero; opacity: 1;" transform=" translate(-145.4845, -272.0715)" d="M 166.814 257.086 L 156.134 272.071 L 145.454 287.057 L 134.835 272.071 L 124.155 257.086" stroke-linecap="round"/>
</g>
		<g transform="matrix(1 0 0 1 30.372 10.033)" id="Vector_23" clip-path="url(#CLIPPATH_32)">
<clipPath id="CLIPPATH_32">
	<rect transform="matrix(1 0 0 1 -30.372 -10.033)" id="clip0" x="-182.5" y="-220.5" rx="0" ry="0" width="365" height="441"/>
</clipPath>
<path style="stroke: rgb(255,255,255); stroke-width: 1; stroke-dasharray: none; stroke-linecap: round; stroke-dashoffset: 0; stroke-linejoin: miter; stroke-miterlimit: 10; is-custom-font: none; font-file-url: none; fill: none; fill-rule: nonzero; opacity: 1;" transform=" translate(-212.872, -230.533)" d="M 215.906 223.927 C 214.261 228.497 212.231 232.917 209.838 237.139" stroke-linecap="round"/>
</g>
		<g transform="matrix(1 0 0 1 41.0515 -29.756)" id="Vector_24" clip-path="url(#CLIPPATH_33)">
<clipPath id="CLIPPATH_33">
	<rect transform="matrix(1 0 0 1 -41.0515 29.756)" id="clip0" x="-182.5" y="-220.5" rx="0" ry="0" width="365" height="441"/>
</clipPath>
<path style="stroke: rgb(255,255,255); stroke-width: 1; stroke-dasharray: none; stroke-linecap: round; stroke-dashoffset: 0; stroke-linejoin: miter; stroke-miterlimit: 10; is-custom-font: none; font-file-url: none; fill: none; fill-rule: nonzero; opacity: 0.3;" transform=" translate(-223.5515, -190.744)" d="M 224.522 183.068 C 224.336 188.234 223.686 193.372 222.581 198.42" stroke-linecap="round"/>
</g>
		<g transform="matrix(1 0 0 1 20.5715 -94.6843)" id="Vector_25" clip-path="url(#CLIPPATH_34)">
<clipPath id="CLIPPATH_34">
	<rect transform="matrix(1 0 0 1 -20.5715 94.6843)" id="clip0" x="-182.5" y="-220.5" rx="0" ry="0" width="365" height="441"/>
</clipPath>
<path style="stroke: rgb(255,255,255); stroke-width: 1; stroke-dasharray: none; stroke-linecap: round; stroke-dashoffset: 0; stroke-linejoin: miter; stroke-miterlimit: 10; is-custom-font: none; font-file-url: none; fill: none; fill-rule: nonzero; opacity: 1;" transform=" translate(-203.0715, -125.8157)" d="M 181.135 96.3953 C 192.201 102.465 201.844 110.86 209.414 121.011 C 216.983 131.163 222.301 142.834 225.008 155.236" stroke-linecap="round"/>
</g>
		<g transform="matrix(1 0 0 1 -62.7747 -125.9246)" id="Vector_26" clip-path="url(#CLIPPATH_35)">
<clipPath id="CLIPPATH_35">
	<rect transform="matrix(1 0 0 1 62.7747 125.9247)" id="clip0" x="-182.5" y="-220.5" rx="0" ry="0" width="365" height="441"/>
</clipPath>
<path style="stroke: rgb(255,255,255); stroke-width: 1; stroke-dasharray: none; stroke-linecap: round; stroke-dashoffset: 0; stroke-linejoin: miter; stroke-miterlimit: 10; is-custom-font: none; font-file-url: none; fill: none; fill-rule: nonzero; opacity: 0.7;" transform=" translate(-119.7253, -94.5753)" d="M 85.5615 103.619 C 95.6823 95.8149 107.39 90.3633 119.847 87.6552 C 131.032 85.1489 142.594 84.8581 153.889 86.7989" stroke-linecap="round"/>
</g>
		<g transform="matrix(1 0 0 1 -101.975 -103.879)" id="Vector_27" clip-path="url(#CLIPPATH_36)">
<clipPath id="CLIPPATH_36">
	<rect transform="matrix(1 0 0 1 101.975 103.879)" id="clip0" x="-182.5" y="-220.5" rx="0" ry="0" width="365" height="441"/>
</clipPath>
<path style="stroke: rgb(255,255,255); stroke-width: 2; stroke-dasharray: none; stroke-linecap: round; stroke-dashoffset: 0; stroke-linejoin: miter; stroke-miterlimit: 10; is-custom-font: none; font-file-url: none; fill: none; fill-rule: nonzero; opacity: 1;" transform=" translate(-80.525, -116.621)" d="M 67.2964 131.515 C 73.7617 119.693 82.8087 109.507 93.7536 101.727" stroke-linecap="round"/>
</g>
		<g transform="matrix(1 0 0 1 -110.3616 -26.048)" id="Vector_28" clip-path="url(#CLIPPATH_37)">
<clipPath id="CLIPPATH_37">
	<rect transform="matrix(1 0 0 1 110.3616 26.048)" id="clip0" x="-182.5" y="-220.5" rx="0" ry="0" width="365" height="441"/>
</clipPath>
<path style="stroke: rgb(255,255,255); stroke-width: 2; stroke-dasharray: none; stroke-linecap: round; stroke-dashoffset: 0; stroke-linejoin: miter; stroke-miterlimit: 10; is-custom-font: none; font-file-url: none; fill: none; fill-rule: nonzero; opacity: 1;" transform=" translate(-72.1384, -194.452)" d="M 88.0488 242.65 C 74.4192 231.204 64.5207 215.89 59.64 198.699 C 54.7593 181.508 55.1222 163.234 60.6814 146.254" stroke-linecap="round"/>
</g>
</g>
</g>
</svg>